<svg id="ui" xmlns="http://www.w3.org/2000/svg" viewBox="0 0 175 82"><defs><style>.cls-1{fill:#fff;}.cls-2{fill:#eee;}.cls-3{fill:#ddd;}.cls-4{font-size:14px;fill:#bfbfbf;font-family:Arial;}</style></defs><title>image_md</title><rect class="cls-1" x="1" width="174" height="81" rx="5.5" ry="5.5"/><rect class="cls-2" x="5" y="5" width="165" height="72" rx="1" ry="1"/><path class="cls-3" d="M1881.14,2477c2.75,0,4.86,1.75,4.86,4.5v70c0,2.75-2.11,5.5-4.86,5.5h-163c-2.75,0-5.14-2.75-5.14-5.5v-70c0-2.75,2.39-4.5,5.14-4.5H1881m0.14-1h-163c-3.31,0-6.14,2.19-6.14,5.5v70c0,3.31,2.83,6.5,6.14,6.5h163c3.31,0,5.86-3.19,5.86-6.5v-70c0-3.31-2.55-5.5-5.86-5.5h0Z" transform="translate(-1712 -2476)"/><text class="cls-4" transform="translate(68.19 45)">Image</text></svg>